<svg width="33" height="32" viewBox="0 0 33 32" fill="none" xmlns="http://www.w3.org/2000/svg">
<path d="M11.2725 1.53891C10.7461 0.376409 9.3584 -0.242341 8.03223 0.0889092L2.0166 1.58891C0.827148 1.88891 0 2.87641 0 4.00141C0 19.4639 13.7129 32.0014 30.625 32.0014C31.8555 32.0014 32.9355 31.2452 33.2637 30.1577L34.9043 24.6577C35.2666 23.4452 34.5898 22.1764 33.3184 21.6952L26.7559 19.1952C25.6416 18.7702 24.3496 19.0639 23.5908 19.9202L20.8291 23.0014C16.0166 20.9202 12.1201 17.3577 9.84375 12.9577L13.2139 10.4389C14.1504 9.73891 14.4717 8.56391 14.0068 7.54516L11.2725 1.54516V1.53891Z" fill="black"/>
</svg>
